<svg xmlns="http://www.w3.org/2000/svg" xmlns:xlink="http://www.w3.org/1999/xlink" version="1.1" style="" xml:space="preserve" width="466.705" height="466.705"><rect id="backgroundrect" width="100%" height="100%" x="0" y="0" fill="none" stroke="none"/>
















<g class="currentLayer" style=""><title>Layer 1</title><path d="M458.43246273994447,357.41446273994444 L268.01246273994445,60.01046273994446 c-7.893,-12.323 -21.518,-19.776 -36.145,-19.776 c-14.628,0 -28.254,7.453 -36.146,19.776 L5.287462739944458,357.41446273994444 c-8.462,13.209 -9.047,29.987 -1.5110000000000001,43.752 c7.522,13.757 21.964,22.319 37.655,22.319 h380.854 c15.691,0 30.134,-8.555 37.656,-22.319 C467.47946273994444,387.40146273994446 466.89446273994446,370.62346273994444 458.43246273994447,357.41446273994444 zM207.96046273994446,161.11446273994446 c0,-13.078 10.605,-23.675 23.675,-23.675 c13.072,0 23.676000000000002,10.597 23.676000000000002,23.675 v101.584 c0,13.078 -10.604,23.675 -23.676000000000002,23.675 c-13.07,0 -23.675,-10.597 -23.675,-23.675 V161.11446273994446 zM231.18946273994445,372.12046273994446 c-16.338,0 -29.594,-13.249 -29.594,-29.594 c0,-16.347 13.256,-29.594 29.594,-29.594 c16.339,0 29.595,13.247 29.595,29.594 C260.78346273994447,358.87146273994443 247.52846273994444,372.12046273994446 231.18946273994445,372.12046273994446 z" id="svg_1" class="selected" fill="#eb1a1a" fill-opacity="1"/><g id="svg_2">
</g><g id="svg_3">
</g><g id="svg_4">
</g><g id="svg_5">
</g><g id="svg_6">
</g><g id="svg_7">
</g><g id="svg_8">
</g><g id="svg_9">
</g><g id="svg_10">
</g><g id="svg_11">
</g><g id="svg_12">
</g><g id="svg_13">
</g><g id="svg_14">
</g><g id="svg_15">
</g><g id="svg_16">
</g></g></svg>